<svg version="1.1" viewBox="0.0 0.0 960.0 720.0" fill="none" stroke="none" stroke-linecap="square" stroke-miterlimit="10" xmlns:xlink="http://www.w3.org/1999/xlink" xmlns="http://www.w3.org/2000/svg"><clipPath id="p.0"><path d="m0 0l960.0 0l0 720.0l-960.0 0l0 -720.0z" clip-rule="nonzero"/></clipPath><g clip-path="url(#p.0)"><path fill="#000000" fill-opacity="0.0" d="m0 0l960.0 0l0 720.0l-960.0 0z" fill-rule="evenodd"/><path fill="#434343" d="m616.0 299.8609l111.74805 0l0 106.70865l-111.74805 0z" fill-rule="evenodd"/><path stroke="#000000" stroke-width="16.0" stroke-linejoin="round" stroke-linecap="butt" d="m616.0 299.8609l111.74805 0l0 106.70865l-111.74805 0z" fill-rule="evenodd"/><path fill="#666666" d="m294.7874 353.2152l0 0c0 -91.04434 73.80603 -164.85039 164.85037 -164.85039l0 0c43.72104 0 85.6514 17.368118 116.566864 48.28357c30.915405 30.915451 48.28351 72.84578 48.28351 116.56682l0 0c0 91.04437 -73.80603 164.8504 -164.85037 164.8504l0 0c-91.04434 0 -164.85037 -73.80603 -164.85037 -164.8504z" fill-rule="evenodd"/><path stroke="#000000" stroke-width="16.0" stroke-linejoin="round" stroke-linecap="butt" d="m294.7874 353.2152l0 0c0 -91.04434 73.80603 -164.85039 164.85037 -164.85039l0 0c43.72104 0 85.6514 17.368118 116.566864 48.28357c30.915405 30.915451 48.28351 72.84578 48.28351 116.56682l0 0c0 91.04437 -73.80603 164.8504 -164.85037 164.8504l0 0c-91.04434 0 -164.85037 -73.80603 -164.85037 -164.8504z" fill-rule="evenodd"/><path fill="#4a86e8" d="m403.7638 353.2152l0 0c0 -30.858368 25.015625 -55.873993 55.873993 -55.873993l0 0c14.818726 0 29.030487 5.886688 39.50891 16.365112c10.478394 10.478424 16.365143 24.690186 16.365143 39.50888l0 0c0 30.858368 -25.015686 55.874023 -55.874054 55.874023l0 0c-30.858368 0 -55.873993 -25.015656 -55.873993 -55.874023z" fill-rule="evenodd"/><path stroke="#000000" stroke-width="16.0" stroke-linejoin="round" stroke-linecap="butt" d="m403.7638 353.2152l0 0c0 -30.858368 25.015625 -55.873993 55.873993 -55.873993l0 0c14.818726 0 29.030487 5.886688 39.50891 16.365112c10.478394 10.478424 16.365143 24.690186 16.365143 39.50888l0 0c0 30.858368 -25.015686 55.874023 -55.874054 55.874023l0 0c-30.858368 0 -55.873993 -25.015656 -55.873993 -55.874023z" fill-rule="evenodd"/></g></svg>